<svg width="432" height="169" viewBox="0 0 432 169" fill="none" xmlns="http://www.w3.org/2000/svg">
<path d="M32.2133 33.1609V135.585C32.2133 136.138 32.661 136.585 33.2133 136.585H43.3961C43.9484 136.585 44.3961 136.138 44.3961 135.585V99.1666V95.1057V33.1609C44.3961 32.6086 43.9484 32.1609 43.3961 32.1609H33.2133C32.661 32.1609 32.2133 32.6086 32.2133 33.1609Z" fill="#F7F7F2"/>
<path d="M123.147 64.9674L150.932 94.8179C151.104 95.0029 151.2 95.2464 151.2 95.4992V98.7772C151.2 99.0277 151.106 99.2692 150.936 99.4537L117.124 136.262C116.934 136.468 116.667 136.586 116.387 136.586H104.025C103.154 136.586 102.699 135.548 103.29 134.908L137.447 97.8586C137.617 97.6739 137.712 97.4319 137.712 97.1808V97.0928C137.712 96.841 137.617 96.5986 137.446 96.4137L109.619 66.3277C109.027 65.6874 109.481 64.6487 110.353 64.6487H122.415C122.692 64.6487 122.957 64.7641 123.147 64.9674Z" fill="#F7F7F2"/>
<path d="M69.1942 64.9683L41.4805 94.8181C41.3088 95.003 41.2133 95.2461 41.2133 95.4985V98.7772C41.2133 99.0277 41.3074 99.2692 41.4769 99.4537L75.2892 136.262C75.4786 136.468 75.7457 136.586 76.0257 136.586H88.3879C89.2593 136.586 89.7138 135.548 89.1231 134.908L54.9663 97.8586C54.796 97.6739 54.7015 97.4319 54.7015 97.1808V97.0924C54.7015 96.8409 54.7963 96.5986 54.967 96.4138L82.7644 66.3273C83.3562 65.6868 82.9019 64.6487 82.0299 64.6487H69.927C69.6489 64.6487 69.3834 64.7645 69.1942 64.9683Z" fill="#F7F7F2"/>
<path d="M364.156 138.289C358.452 138.289 353.714 137.274 349.943 135.244C346.172 133.213 343.368 130.554 341.531 127.267C339.694 123.883 338.775 120.209 338.775 116.244C338.775 108.896 341.434 103.336 346.752 99.5654C352.167 95.6978 359.37 93.764 368.362 93.764H387.087C387.639 93.764 388.087 93.3163 388.087 92.764V92.3137C388.087 79.7441 382.334 73.4592 370.828 73.4592C366.187 73.4592 362.271 74.4745 359.08 76.505C356.179 78.4088 354.256 81.3326 353.31 85.2765C353.198 85.74 352.791 86.0772 352.314 86.0772H341.766C341.174 86.0772 340.71 85.5657 340.791 84.9796C341.395 80.6106 342.947 76.8188 345.447 73.6043C348.251 70.1235 351.828 67.4645 356.179 65.6274C360.531 63.7903 365.413 62.8718 370.828 62.8718C381.077 62.8718 388.522 65.5791 393.163 70.9937C397.901 76.3116 400.27 83.4183 400.27 92.3137V135.549C400.27 136.101 399.822 136.549 399.27 136.549H390.741C390.223 136.549 389.792 136.155 389.745 135.64L388.869 126.008C388.837 125.653 388.539 125.381 388.183 125.381C387.943 125.381 387.721 125.507 387.593 125.71C385.489 129.054 382.704 131.99 379.24 134.519C375.759 137.032 370.731 138.289 364.156 138.289ZM366.332 127.557C370.973 127.557 374.889 126.445 378.08 124.221C381.367 121.997 383.833 119.048 385.476 115.374C387.083 111.983 387.948 108.304 388.071 104.336C388.089 103.784 387.639 103.336 387.087 103.336H369.378C362.803 103.336 358.162 104.448 355.454 106.672C352.844 108.896 351.538 111.845 351.538 115.519C351.538 119.29 352.795 122.239 355.309 124.366C357.823 126.493 361.497 127.557 366.332 127.557Z" fill="#F7F7F2"/>
<path d="M245.163 136.549C244.611 136.549 244.163 136.101 244.163 135.549V65.6122C244.163 65.0599 244.611 64.6122 245.163 64.6122H253.314C253.807 64.6122 254.226 64.9716 254.302 65.4588L255.413 72.6184C255.449 72.8519 255.65 73.0241 255.886 73.0241C256.077 73.0241 256.25 72.9105 256.328 72.7365C257.584 69.9633 259.427 67.6419 261.857 65.7724C264.468 63.8387 267.61 62.8718 271.284 62.8718C274.959 62.8718 278.053 63.7903 280.567 65.6274C283.1 67.3165 284.951 69.6885 286.118 72.7435C286.182 72.9114 286.343 73.0241 286.522 73.0241C286.693 73.0241 286.846 72.9227 286.917 72.7675C288.181 69.9806 290.174 67.6489 292.895 65.7724C295.699 63.8387 299.083 62.8718 303.047 62.8718C308.558 62.8718 312.667 64.7572 315.375 68.5281C318.179 72.2023 319.581 77.1334 319.581 83.3216V135.549C319.581 136.101 319.133 136.549 318.581 136.549H308.688C308.136 136.549 307.688 136.101 307.688 135.549V85.207C307.688 81.7262 306.963 78.9705 305.512 76.9401C304.159 74.9096 301.935 73.8944 298.841 73.8944C295.65 73.8944 293.04 75.103 291.009 77.5202C288.979 79.9374 287.963 83.3699 287.963 87.8176V135.549C287.963 136.101 287.516 136.549 286.963 136.549H276.926C276.373 136.549 275.926 136.101 275.926 135.549V85.207C275.926 81.7262 275.249 78.9705 273.895 76.9401C272.541 74.9096 270.318 73.8944 267.223 73.8944C264.033 73.8944 261.374 75.103 259.247 77.5202C257.216 79.9374 256.201 83.3699 256.201 87.8176V135.549C256.201 136.101 255.753 136.549 255.201 136.549H245.163Z" fill="#F7F7F2"/>
<path d="M162.009 136.549C161.457 136.549 161.009 136.101 161.009 135.549V127.107C161.009 126.554 161.457 126.107 162.009 126.107H178.428C178.98 126.107 179.428 125.659 179.428 125.107V78.6805C179.428 76.2632 178.268 75.0546 175.947 75.0546H163.894C163.342 75.0546 162.894 74.6069 162.894 74.0546V65.6122C162.894 65.0599 163.342 64.6122 163.894 64.6122H180.443C183.634 64.6122 186.196 65.4824 188.13 67.2228C190.064 68.9632 191.031 71.5255 191.031 74.9096V77.6309C191.031 77.8101 191.176 77.9553 191.355 77.9553C191.505 77.9553 191.636 77.8518 191.672 77.7063C192.847 72.9928 195.002 69.3533 198.137 66.7877C201.425 64.1771 205.969 62.8718 211.771 62.8718H223.969C224.521 62.8718 224.969 63.3195 224.969 63.8718V74.7798C224.969 75.3321 224.521 75.7798 223.969 75.7798H210.03C204.132 75.7798 199.588 77.7619 196.397 81.7262C193.206 85.5938 191.611 90.5733 191.611 96.6647V125.107C191.611 125.659 192.059 126.107 192.611 126.107H213.236C213.789 126.107 214.236 126.554 214.236 127.107V135.549C214.236 136.101 213.789 136.549 213.236 136.549H162.009Z" fill="#F7F7F2"/>
</svg>
